<svg fill="#737373" xmlns="http://www.w3.org/2000/svg"  viewBox="0 0 50 50" width="50px" height="50px"><path d="M 35 6 C 34.222656 6 33.472656 6.078125 32.75 6.207031 C 32.207031 6.300781 31.84375 6.820313 31.9375 7.363281 C 32.03125 7.910156 32.550781 8.273438 33.09375 8.179688 C 33.726563 8.066406 34.359375 8 35 8 C 41.085938 8 46 12.914063 46 19 C 46 20.316406 45.757813 21.574219 45.328125 22.753906 C 45.195313 23.09375 45.253906 23.476563 45.484375 23.757813 C 45.71875 24.039063 46.082031 24.171875 46.441406 24.105469 C 46.800781 24.039063 47.09375 23.78125 47.207031 23.4375 C 47.710938 22.054688 48 20.566406 48 19 C 48 11.832031 42.167969 6 35 6 Z M 35 12 C 34.574219 12 34.171875 12.042969 33.789063 12.109375 C 33.246094 12.207031 32.878906 12.722656 32.976563 13.269531 C 33.070313 13.8125 33.589844 14.175781 34.132813 14.082031 C 34.425781 14.03125 34.714844 14 35 14 C 37.773438 14 40 16.226563 40 19 C 40 19.597656 39.890625 20.167969 39.691406 20.707031 C 39.503906 21.226563 39.773438 21.800781 40.292969 21.988281 C 40.8125 22.175781 41.386719 21.910156 41.574219 21.390625 C 41.84375 20.648438 42 19.84375 42 19 C 42 15.144531 38.855469 12 35 12 Z M 21.066406 12.40625 C 17.855469 12.40625 13.070313 14.925781 8.804688 19.113281 C 4.511719 23.40625 2 27.90625 2 31.78125 C 2 39.3125 11.628906 43.8125 21.152344 43.8125 C 33.5 43.8125 41.765625 36.699219 41.765625 31.046875 C 41.765625 27.59375 38.835938 25.710938 36.21875 24.875 C 35.59375 24.664063 35.171875 24.558594 35.484375 23.722656 C 35.695313 23.21875 36 22.265625 36 21 C 36 19.5625 35 18.316406 33 18.09375 C 32.769531 18.070313 32.378906 18.050781 31.886719 18.050781 C 30.230469 18.050781 27.386719 18.257813 25.339844 19.117188 C 25.339844 19.117188 24.9375 19.285156 24.613281 19.285156 C 24.320313 19.285156 24.089844 19.144531 24.289063 18.59375 C 25.023438 16.292969 24.917969 14.410156 23.765625 13.359375 C 23.117188 12.710938 22.1875 12.40625 21.066406 12.40625 Z M 21.066406 14.40625 C 21.484375 14.40625 22.046875 14.46875 22.355469 14.773438 L 22.386719 14.808594 L 22.421875 14.839844 C 22.871094 15.25 22.863281 16.472656 22.394531 17.957031 C 21.992188 19.117188 22.367188 19.921875 22.632813 20.296875 C 23.074219 20.925781 23.796875 21.285156 24.613281 21.285156 C 25.277344 21.285156 25.890625 21.054688 26.109375 20.960938 C 27.710938 20.289063 30.144531 20.050781 31.886719 20.050781 C 32.332031 20.050781 32.644531 20.066406 32.78125 20.082031 C 33.589844 20.171875 34 20.480469 34 21 C 34 21.941406 33.773438 22.632813 33.640625 22.957031 L 33.625 22.988281 L 33.613281 23.015625 C 33.300781 23.855469 33.304688 24.617188 33.625 25.285156 C 34.097656 26.273438 35.027344 26.582031 35.527344 26.75 L 35.609375 26.777344 C 37.164063 27.273438 39.765625 28.488281 39.765625 31.046875 C 39.765625 33.34375 37.785156 36.179688 34.269531 38.363281 C 35.65625 36.75 36.441406 34.859375 36.441406 32.824219 C 36.441406 26.714844 29.355469 21.929688 20.3125 21.929688 C 11.269531 21.929688 4.1875 26.714844 4.1875 32.824219 C 4.1875 33.011719 4.191406 33.195313 4.203125 33.378906 C 4.070313 32.867188 4 32.332031 4 31.78125 C 4 28.535156 6.207031 24.539063 10.203125 20.542969 C 14.523438 16.300781 18.773438 14.40625 21.066406 14.40625 Z M 20.3125 23.933594 C 28.117188 23.933594 34.441406 27.914063 34.441406 32.828125 C 34.441406 37.738281 28.117188 41.71875 20.3125 41.71875 C 12.511719 41.71875 6.1875 37.738281 6.1875 32.828125 C 6.1875 27.914063 12.511719 23.933594 20.3125 23.933594 Z M 19.265625 26.023438 C 16.246094 26.046875 13.3125 27.699219 12.039063 30.246094 C 10.46875 33.484375 11.933594 37.042969 15.699219 38.191406 C 19.464844 39.445313 23.960938 37.5625 25.53125 34.113281 C 27.097656 30.769531 25.113281 27.214844 21.347656 26.277344 C 20.660156 26.097656 19.960938 26.019531 19.265625 26.023438 Z M 20.824219 30.25 C 21.402344 30.25 21.871094 30.714844 21.871094 31.292969 C 21.871094 31.871094 21.402344 32.339844 20.824219 32.339844 C 20.246094 32.339844 19.777344 31.871094 19.777344 31.292969 C 19.777344 30.714844 20.246094 30.25 20.824219 30.25 Z M 16.417969 31.292969 C 16.746094 31.296875 17.074219 31.347656 17.382813 31.453125 C 18.722656 31.878906 19.132813 33.148438 18.308594 34.207031 C 17.589844 35.265625 15.945313 35.792969 14.707031 35.265625 C 13.476563 34.738281 13.167969 33.464844 13.886719 32.515625 C 14.425781 31.71875 15.429688 31.28125 16.417969 31.292969 Z"/></svg>